<svg width="247" height="268" viewBox="0 0 247 268" fill="none" xmlns="http://www.w3.org/2000/svg">
<path d="M98.2632 68.145C38.8108 71.8744 22.9132 122.55 22.9132 122.55C22.9132 122.55 22.4777 124.963 22.2599 128.473C22.2599 131.106 22.0421 134.835 24.0021 135.713C30.0998 136.81 43.8196 138.345 66.6859 134.835C66.6859 135.055 68.4281 133.519 68.4281 133.738C52.7483 164.89 23.131 169.497 23.131 169.497C20.5177 207.449 12.0245 239.697 0.917969 257.247C81.2768 257.247 117.863 203.939 127.663 174.542L155.538 202.403C168.822 188.144 177.098 169.058 177.098 147.778C177.315 103.903 142.036 68.145 98.2632 68.145Z" fill="#61B984"/>
<path d="M204.104 43.5784C146.176 -14.5562 58.4124 -13.2399 1.35547 39.849C7.23538 51.6953 15.9464 68.3679 20.7374 89.8667C60.3724 34.3646 132.456 37.4359 171.002 76.2654C209.112 114.656 207.806 178.275 170.566 217.105L192.562 239.042C186.028 239.042 167.082 239.042 166.646 239.042C165.558 239.042 165.34 239.7 165.775 240.578C165.993 241.017 166.211 241.675 166.429 242.113C170.784 251.547 174.051 258.567 178.188 268C188.424 261.419 196.482 254.837 202.144 249.133C260.072 191.657 260.943 100.616 204.104 43.5784Z" fill="#3B302D"/>
</svg>
